<?xml version="1.0" encoding="utf-8"?>
<!-- Generator: Adobe Illustrator 19.0.0, SVG Export Plug-In . SVG Version: 6.00 Build 0)  -->
<svg version="1.1" id="Ebene_1" xmlns="http://www.w3.org/2000/svg" xmlns:xlink="http://www.w3.org/1999/xlink" x="0px" y="0px"
	 viewBox="0 0 404 14" style="enable-background:new 0 0 404 14;" xml:space="preserve">
<style type="text/css">
	.st0{fill:none;stroke:#8A85BF;stroke-width:3.2529;}
</style>
<path id="XMLID_121_" class="st0" d="M-304.6,7c6.1-6,18.2-6,24.3,0c6.1,6,18.2,6,24.3,0c6.1-6,18.2-6,24.3,0c6.1,6,18.2,6,24.3,0
	c6.1-6,18.2-6,24.3,0c6.1,6,18.2,6,24.3,0c6.1-6,18.2-6,24.3,0c6.1,6,18.2,6,24.3,0c6.1-6,18.2-6,24.3,0c6.1,6,18.2,6,24.3,0
	c6.1-6,18.2-6,24.3,0c6.1,6,18.2,6,24.3,0c6.1-6,18.2-6,24.3,0c6.1,6,18.2,6,24.3,0C41.9,1,54,1,60.1,7c6.1,6,18.2,6,24.3,0
	c6.1-6,18.2-6,24.3,0c6.1,6,18.2,6,24.3,0c6.1-6,18.2-6,24.3,0c6.1,6,18.2,6,24.3,0c6.1-6,18.2-6,24.3,0c6.1,6,18.2,6,24.3,0
	c6.1-6,18.2-6,24.3,0c6.1,6,18.2,6,24.3,0c6.1-6,18.2-6,24.3,0c6.1,6,18.2,6,24.3,0c6.1-6,18.2-6,24.3,0c6.1,6,18.2,6,24.3,0
	c6.1-6,18.2-6,24.3,0c6.1,6,18.2,6,24.3,0c6.1-6,18.2-6,24.3,0c6.1,6,18.2,6,24.3,0c6.1-6,18.2-6,24.3,0c6.1,6,18.2,6,24.3,0
	c6.1-6,18.2-6,24.3,0c6.1,6,18.2,6,24.3,0c6.1-6,18.2-6,24.3,0c6.1,6,18.2,6,24.3,0c6.1-6,18.2-6,24.3,0c6.1,6,18.2,6,24.3,0
	c6.1-6,18.2-6,24.3,0c6.1,6,18.2,6,24.3,0"/>
</svg>
